<svg width="680" height="409" viewBox="0 0 680 409" fill="none" xmlns="http://www.w3.org/2000/svg">
<path fill-rule="evenodd" clip-rule="evenodd" d="M96.7648 13.6489C83.5832 45.7879 77.6114 58.7254 76.4993 57.551C76.0816 57.1092 75.2853 57.5488 74.7316 58.5286C73.9202 59.9615 73.1251 60.061 70.6581 59.0374C67.7838 57.8448 67.5819 57.931 67.4069 60.413C67.3041 61.8693 67.5 62.8979 67.8412 62.6997C69.1436 61.9433 70.7802 67.9205 69.9928 70.5578C68.5939 75.2438 66.9485 92.8089 68.2782 88.8598C68.5859 87.9451 69.2381 87.3039 69.7281 87.4338C70.9431 87.756 73.4237 82.7558 74.9144 76.9748C75.7696 73.6602 76.9604 71.5417 78.7937 70.0746C80.5245 68.69 82.3546 65.573 84.084 61.0688C88.0442 50.7543 95.37 32.7889 103.164 14.2803C109.3 -0.289745 109.495 -1.3387 106.234 -2.20356L103.557 -2.91334L96.7648 13.6489ZM116.461 69.7325C116.033 70.1382 114.524 70.0195 113.108 69.4681C109.235 67.9631 108.385 68.7359 110.952 71.4249C113.044 73.6154 113.56 73.7717 116.759 73.1852C119.483 72.6867 120.106 72.192 119.545 70.9785C118.701 69.1553 117.558 68.6939 116.461 69.7325ZM118.733 81.8072C116.715 82.9791 114.68 83.8362 114.21 83.7116C113.742 83.5873 112.393 85.0567 111.215 86.977C109.211 90.2434 108.929 90.3653 106.842 88.8671C104.634 87.281 104.624 87.2899 105.887 89.7374C107.136 92.1584 107.104 92.2463 104.348 93.9641C102.8 94.9295 101.036 95.3599 100.43 94.9217C99.7184 94.4083 98.7735 95.2833 97.7744 97.3813C96.9207 99.1723 95.9263 100.511 95.5652 100.355C93.6126 99.5179 92.516 99.943 91.3932 101.973C89.5044 105.389 88.0744 104.188 89.5916 100.461C90.3238 98.6633 90.5071 97.0825 89.9997 96.9479C89.4922 96.8133 89.2465 96.0664 89.4531 95.2873C89.6597 94.5082 89.0694 91.4673 88.1415 88.5293C87.2136 85.5913 86.5519 82.8201 86.6708 82.3716C87.0028 81.1199 84.2879 74.7419 83.3126 74.4833C82.839 74.3577 82.3939 75.599 82.3228 77.2406C82.2362 79.2485 81.2586 81.2767 79.3379 83.4324C72.3272 91.2992 71.5135 100.231 77.0184 108.88C78.8222 111.714 80.742 114.15 81.2862 114.294C81.8294 114.438 81.9242 115.875 81.4969 117.487C80.9332 119.612 80.086 120.478 78.4151 120.638C76.8636 120.785 76.4246 121.188 77.0703 121.87C77.5979 122.428 77.6727 123.223 77.2351 123.637C75.4901 125.29 73.5354 123.391 72.1699 118.717C71.3801 116.011 69.6702 112.718 68.3716 111.4L66.0093 109.002L63.6692 120.124C61.0175 132.729 60.2872 136.966 60.0215 141.28C59.9185 142.94 59.2843 146.712 58.6094 149.663C57.9355 152.614 57.5972 156.016 57.8584 157.223C58.503 160.211 55.9812 167.583 53.5593 169.791C52.2273 171.006 51.9434 171.69 52.6906 171.888C53.4697 172.095 53.1716 173.781 51.6826 177.57C50.5193 180.533 48.8633 184.959 48.0042 187.406C46.2338 192.448 45.2224 193.703 43.3336 193.202C42.6106 193.01 41.3885 194.077 40.6181 195.573C39.848 197.069 37.628 199.155 35.6849 200.209C31.4947 202.484 31.3384 202.847 33.1865 206.029C34.6809 208.602 34.0477 212.968 31.891 214.968C30.8102 215.969 29.9808 215.789 26.5117 213.8C20.2632 210.218 17.8296 209.84 16.4988 212.249C15.8706 213.385 15.4512 215.485 15.5673 216.916C15.7892 219.645 11.5556 228.958 10.4422 228.19C9.13819 227.29 7.88886 227.301 7.64714 228.212C7.50769 228.738 8.18202 229.265 9.14642 229.386C10.1108 229.506 10.8919 230.068 10.8843 230.635C10.8767 231.202 9.67392 231.348 8.21147 230.961C6.06661 230.392 5.6816 229.834 6.21628 228.076C7.28326 224.571 4.9749 225.672 0.499337 230.802C-3.98806 235.946 -4.77995 236.197 -6.60389 233.057C-7.56558 231.401 -8.20263 231.135 -9.92972 231.667C-11.4833 232.146 -11.9869 232.028 -11.776 231.232C-11.5806 230.496 -12.0982 230.423 -13.3613 231.007C-16.5597 232.488 -13.3979 235.058 -5.94936 237.034L0.561585 238.76L2.54843 245.5C3.64171 249.207 5.25341 252.91 6.13194 253.728C7.06072 254.595 7.4567 256.239 7.07886 257.663C6.72205 259.009 6.6454 261.018 6.90755 262.129C7.25413 263.596 6.90742 264.368 5.64091 264.954C2.89301 266.227 2.87906 268.347 5.61425 268.835C9.15656 269.467 11.1209 264.541 10.531 256.501C10.2801 253.075 10.2868 249.468 10.5467 248.488C10.8864 247.207 10.3029 246.516 8.46736 246.03C6.2848 245.451 3.99566 242.512 4.35525 240.75C4.41527 240.454 6.92616 240.852 9.9332 241.633C14.4975 242.82 15.8082 242.758 17.8601 241.259C19.2123 240.271 20.3216 238.621 20.3255 237.591C20.3286 236.562 21.4307 234.965 22.7731 234.042L25.2143 232.366L23.6835 235.739C22.8409 237.594 21.0845 242.715 19.7811 247.119C17.2533 255.656 12.3821 266.3 6.20738 276.781C3.88946 280.715 1.71595 285.954 0.622223 290.246L-1.16729 297.271L3.1931 295.61C7.39036 294.011 7.67708 293.651 10.8634 286.005C12.683 281.637 16.7444 272.731 19.8886 266.216C23.0316 259.701 28.974 246.874 33.0929 237.713C39.0382 224.489 41.1197 220.721 43.1934 219.428C44.6299 218.533 45.7225 217.163 45.6218 216.384C45.5016 215.456 45.0129 215.657 44.2015 216.968C42.5878 219.574 40.8972 219.126 42.279 216.459C42.8622 215.332 47.2726 205.033 52.0797 193.569C57.9183 179.648 61.7351 171.727 63.5725 169.718C65.0861 168.064 69.2349 165.433 72.7915 163.874C78.8561 161.214 79.7979 160.467 80.2204 157.98C80.3131 157.436 83.2909 151.84 86.8378 145.546C93.2492 134.169 93.2971 134.114 95.0026 136.137C96.5482 137.97 96.8178 138.034 97.717 136.789C98.3314 135.939 99.3202 135.792 100.286 136.406C101.15 136.956 105.242 137.367 109.379 137.322C117.334 137.233 119.368 136.836 116.343 135.961C114.926 135.552 115.74 134.812 119.864 132.76C122.814 131.292 125.695 130.213 126.268 130.364C127.807 130.768 132.635 127.513 133.101 125.759C133.322 124.923 134.483 123.166 135.682 121.854C136.879 120.542 138.179 118.273 138.571 116.812C138.961 115.35 139.656 114.254 140.114 114.376C141.052 114.625 142.389 108.443 141.809 106.531C141.602 105.846 140.53 104.639 139.428 103.849C137.826 102.698 137.627 101.726 138.435 98.9917C139.62 94.9867 138.777 93.0715 135.438 92.1862C133.789 91.7489 133.3 91.169 133.889 90.3526C134.364 89.6965 134.27 89.0313 133.681 88.8752C133.093 88.7191 132.9 87.504 133.252 86.1749C133.97 83.4675 133.714 83.2516 130.645 83.9783C129.031 84.3591 128.056 83.9715 126.755 82.4294C124.286 79.5007 122.891 79.3923 118.733 81.8072ZM121.741 85.7449C119.505 89.763 115.198 91.8372 116.092 88.4647C116.503 86.9153 122.423 81.7514 123.471 82.0292C123.633 82.072 122.854 83.7443 121.741 85.7449ZM135.896 87.9105C136.346 88.8835 137.367 89.8526 138.164 90.064C139.344 90.3768 139.461 90.1182 138.795 88.6795C138.345 87.7065 137.324 86.7375 136.527 86.526C135.347 86.2133 135.23 86.4719 135.896 87.9105ZM93.3002 106.876C92.8107 107.742 92.8136 106.928 93.307 105.067C93.8005 103.206 94.2016 102.497 94.1973 103.493C94.1941 104.488 93.7906 106.009 93.3002 106.876ZM61.4299 101.786C60.6996 103.3 59.5029 105.776 58.7726 107.289C57.6582 109.595 57.7514 110.122 59.3501 110.546C61.8603 111.211 62.9533 109.528 63.1334 104.718C63.2376 101.929 63.6757 100.652 64.6311 100.35C65.5575 100.055 65.4748 99.7821 64.3699 99.4777C63.3418 99.1958 62.2784 100.03 61.4299 101.786ZM85.7105 114.433C85.1501 115.422 84.3076 116.13 83.8378 116.005C82.8278 115.737 82.8738 115.419 84.1909 113.597C85.631 111.604 86.9123 112.308 85.7105 114.433ZM86.2821 130.652C86.066 131.467 86.5179 132.587 87.2864 133.142C88.4228 133.963 88.3295 135.009 86.7852 138.754C84.3991 144.54 78.7501 152.578 76.932 152.774C76.0929 152.864 75.1718 154.489 74.5737 156.935C73.7178 160.436 73.04 161.193 69.2642 162.869C64.5132 164.977 58.7279 164.333 59.4072 161.772C59.6463 160.87 60.7041 160.564 62.2081 160.963C64.9648 161.694 64.9473 161.717 64.5565 157.975C64.3347 155.854 67.1119 132.96 68.0414 129.249C68.1283 128.901 70.6241 128.689 73.5889 128.776C76.5528 128.862 79.7279 128.741 80.6438 128.506C83.4308 127.789 86.7101 129.038 86.2821 130.652ZM68.5791 156.445C68.7667 157.064 69.1115 157.621 69.3463 157.683C69.5812 157.745 69.888 157.361 70.0289 156.829C70.1699 156.298 69.8242 155.741 69.2617 155.591C68.6991 155.442 68.3914 155.826 68.5791 156.445ZM31.774 185.998C31.3044 186.443 31.3553 186.922 31.8869 187.063C32.4185 187.204 33.2375 186.955 33.7072 186.511C34.1768 186.066 34.1259 185.587 33.5943 185.446C33.0626 185.305 32.2436 185.554 31.774 185.998ZM-28.6264 205.045C-28.7522 205.52 -28.2762 206.327 -27.5677 206.838C-26.7994 207.394 -26.6824 208.408 -27.2777 209.354C-28.2178 210.847 -28.1835 210.854 -26.6919 209.485C-25.8199 208.686 -25.1813 207.343 -25.2721 206.499C-25.4503 204.842 -28.2506 203.628 -28.6264 205.045ZM-29.3351 216.433C-30.4778 223.363 -28.2073 226.997 -21.6563 228.721L-17.1166 229.914L-20.5717 226.363C-22.4715 224.41 -23.8602 222.183 -23.6567 221.416C-23.4531 220.648 -23.6744 219.918 -24.149 219.792C-24.6226 219.667 -24.9949 218.418 -24.9761 217.017C-24.9583 215.615 -25.7358 213.729 -26.7053 212.824C-28.4214 211.224 -28.4929 211.322 -29.3351 216.433ZM18.8267 239.077C17.9881 240.238 17.5665 240.24 16.8953 239.084C16.2234 237.927 16.3955 237.497 17.6815 237.106C19.7773 236.471 20.1918 237.186 18.8267 239.077ZM3.875 271.906C3.25314 272.702 2.96088 274.198 3.22538 275.23C3.87224 277.753 5.09592 276.29 5.04548 273.055C5.01138 270.886 4.81858 270.696 3.875 271.906ZM32.4322 302.561C32.159 303.627 32.1485 305.176 32.4098 306.005C32.7872 307.199 33.1083 307.202 33.9645 306.018C34.978 304.614 35.1316 304.659 36.4971 306.763C38.2279 309.427 37.9202 311.329 35.7187 311.567C33.9455 311.757 32.7785 314.551 34.3029 314.955C34.8345 315.096 35.3917 314.75 35.5409 314.188C35.6901 313.625 36.1995 313.573 36.6731 314.073C37.2435 314.676 36.875 315.41 35.5777 316.253C33.2817 317.744 32.6758 319.109 34.5635 318.536C35.413 318.278 35.5531 318.589 34.9595 319.411C34.4533 320.111 32.5273 323.285 30.6788 326.463C26.7469 333.222 26.4819 333.484 25.7923 331.29C25.3547 329.897 25.1952 329.902 24.8064 331.317C24.552 332.245 24.9957 333.178 25.7932 333.39C26.6177 333.608 27.0129 334.642 26.7091 335.787C25.9388 338.692 24.1009 337.059 23.1524 332.627C22.4016 329.123 22.296 329.025 21.6709 331.262C21.0291 333.557 20.9552 333.566 20.1001 331.477C19.6055 330.272 18.376 328.55 17.3662 327.649C15.4591 325.949 14.3064 316.606 15.4376 312.021C16.2578 308.694 15.6236 307.184 12.7328 305.586C10.8072 304.522 10.0217 304.577 9.13654 305.844C8.51332 306.735 6.64021 308.442 4.97426 309.636C2.40281 311.48 1.85354 312.509 1.35155 316.435C0.917807 319.826 0.58997 320.602 0.123797 319.34C-0.343994 318.073 -0.762998 319.017 -1.46626 322.921C-1.99122 325.837 -2.31847 328.359 -2.19275 328.524C-2.0673 328.691 -1.22882 329.563 -0.329113 330.462C1.09863 331.889 0.957987 331.92 -1.42874 330.707C-3.36586 329.722 -3.96219 329.696 -3.47226 330.618C-3.09193 331.334 0.500288 333.588 4.5106 335.627C8.52116 337.665 11.9046 339.458 12.0297 339.61C12.1561 339.762 9.83619 342.748 6.87564 346.246C1.18964 352.964 -7.67334 358.655 -11.0535 357.759C-12.8001 357.296 -12.6787 356.452 -8.86365 342.588C-5.0199 328.617 -4.91361 327.865 -6.66075 327.029C-7.67094 326.547 -9.04965 325.321 -9.72406 324.306C-10.8133 322.667 -11.0662 322.641 -11.9681 324.076C-12.9127 325.578 -26.4778 368.764 -29.239 379.059L-30.4691 383.647L-26.2326 384.77C-21.3619 386.062 -20.5991 385.296 -18.3342 376.845C-16.7252 370.844 -14.333 367.235 -12.3177 367.769C-11.4884 367.989 -10.6196 367.315 -10.331 366.227C-10.0003 364.98 -10.4631 364.123 -11.6346 363.812C-12.9298 363.469 -10.7535 361.746 -4.04758 357.806C2.16204 354.158 7.18458 350.27 10.7402 346.357L16.1238 340.432L19.1411 342.334C21.8764 344.059 22.0083 344.42 20.5585 346.188C18.4376 348.775 19.5477 350.433 21.9772 348.306C23.6818 346.813 24.2572 346.847 27.3782 348.635C32.7414 351.705 37.917 351.082 45.8977 346.405C53.8037 341.771 55.3121 339.157 57.6889 325.961C58.8244 319.659 58.8571 316.875 57.8212 314.52C56.4803 311.469 56.3722 311.417 52.4991 311.95C50.3249 312.248 48.1808 312.84 47.7345 313.262C46.8324 314.117 43.0704 313.103 43.3418 312.08C43.4364 311.723 42.688 310.964 41.6786 310.393C40.2142 309.564 40.1038 308.884 41.1321 307.023C42.1178 305.242 42.0562 304.596 40.8663 304.281C40.0118 304.054 39.3984 303.543 39.5043 303.144C39.6101 302.744 38.1741 302.015 36.3134 301.521C33.5703 300.794 32.8364 300.99 32.4322 302.561ZM12.5924 321.295C11.1393 322.139 10.2841 319.345 11.4871 317.68C12.5692 316.182 12.6754 316.234 13.0328 318.444C13.2444 319.749 13.0461 321.031 12.5924 321.295ZM31.9585 343.301C31.8176 343.833 31.0498 344.095 30.2523 343.883C29.4549 343.672 28.9178 343.064 29.0588 342.532C29.1997 342 29.9676 341.739 30.765 341.95C31.5624 342.161 32.0995 342.769 31.9585 343.301Z" fill="#B2BFAF"/>
<path fill-rule="evenodd" clip-rule="evenodd" d="M526.253 339.275C545.246 310.19 553.546 298.607 554.417 299.97C554.744 300.482 555.609 300.2 556.337 299.342C557.403 298.088 558.203 298.139 560.433 299.609C563.032 301.321 563.246 301.274 563.885 298.87C564.26 297.459 564.261 296.412 563.889 296.542C562.468 297.04 561.985 290.861 563.254 288.419C565.51 284.08 570.431 267.139 568.382 270.767C567.908 271.607 567.146 272.114 566.69 271.895C565.557 271.35 562.18 275.794 559.628 281.191C558.165 284.285 556.596 286.142 554.52 287.238C552.559 288.272 550.175 290.989 547.63 295.088C541.799 304.473 531.224 320.739 520.087 337.451C511.32 350.606 510.93 351.6 513.971 353.063L516.466 354.263L526.253 339.275ZM517.461 280.487C517.958 280.169 519.418 280.57 520.705 281.378C524.225 283.584 525.206 282.985 523.19 279.861C521.547 277.316 521.07 277.066 517.818 277.04C515.049 277.017 514.343 277.386 514.667 278.683C515.153 280.632 516.188 281.301 517.461 280.487ZM517.502 268.201C519.704 267.429 521.863 266.97 522.301 267.181C522.738 267.391 524.339 266.202 525.857 264.537C528.44 261.706 528.74 261.64 530.508 263.504C532.379 265.477 532.39 265.47 531.61 262.829C530.839 260.216 530.886 260.136 533.917 258.967C535.619 258.31 537.432 258.219 537.945 258.764C538.547 259.402 539.64 258.72 541.016 256.848C542.191 255.249 543.42 254.122 543.745 254.343C545.505 255.532 546.662 255.321 548.147 253.539C550.645 250.539 551.823 251.987 549.632 255.363C548.575 256.991 548.097 258.509 548.57 258.736C549.043 258.964 549.144 259.744 548.795 260.47C548.445 261.196 548.453 264.294 548.811 267.354C549.17 270.414 549.298 273.261 549.097 273.679C548.535 274.846 550.002 281.62 550.911 282.058C551.353 282.27 552.023 281.135 552.402 279.536C552.865 277.58 554.207 275.772 556.499 274.016C564.864 267.609 567.344 258.99 563.565 249.46C562.326 246.337 560.899 243.584 560.392 243.34C559.885 243.096 560.063 241.666 560.785 240.164C561.739 238.183 562.734 237.492 564.405 237.649C565.957 237.796 566.464 237.483 565.958 236.692C565.545 236.044 565.621 235.25 566.128 234.926C568.153 233.631 569.716 235.863 570.177 240.711C570.444 243.517 571.504 247.073 572.531 248.612L574.4 251.411L578.791 240.928C583.767 229.047 585.281 225.024 586.354 220.837C586.767 219.226 588.1 215.64 589.318 212.869C590.535 210.098 591.508 206.82 591.478 205.585C591.407 202.529 595.271 195.763 598.065 194.051C599.602 193.108 600.009 192.489 599.313 192.154C598.587 191.805 599.197 190.205 601.372 186.764C603.072 184.073 605.531 180.037 606.835 177.795C609.523 173.176 610.752 172.134 612.513 172.982C613.187 173.306 614.588 172.489 615.626 171.164C616.664 169.84 619.237 168.208 621.344 167.538C625.887 166.092 626.109 165.765 624.892 162.292C623.909 159.484 625.352 155.316 627.847 153.757C629.096 152.977 629.877 153.31 632.91 155.916C638.373 160.61 640.692 161.439 642.452 159.324C643.283 158.327 644.09 156.342 644.245 154.915C644.541 152.193 650.451 143.843 651.4 144.807C652.511 145.936 653.74 146.161 654.149 145.311C654.385 144.821 653.822 144.176 652.898 143.876C651.973 143.577 651.312 142.878 651.426 142.323C651.54 141.767 652.749 141.85 654.112 142.506C656.112 143.468 656.385 144.088 655.529 145.714C653.822 148.955 656.296 148.308 661.657 144.112C667.032 139.904 667.857 139.807 669.057 143.234C669.69 145.041 670.266 145.423 672.062 145.225C673.678 145.047 674.151 145.258 673.794 145.999C673.463 146.686 673.958 146.855 675.308 146.519C678.728 145.666 676.107 142.547 669.163 139.205L663.093 136.285L662.41 129.292C662.033 125.445 661.147 121.505 660.438 120.536C659.689 119.509 659.609 117.821 660.249 116.493C660.852 115.238 661.306 113.279 661.257 112.139C661.193 110.634 661.679 109.94 663.033 109.602C665.971 108.87 666.384 106.79 663.789 105.796C660.429 104.509 657.573 108.977 656.64 116.984C656.241 120.397 655.556 123.938 655.116 124.852C654.542 126.046 654.985 126.834 656.696 127.657C658.731 128.637 660.426 131.954 659.741 133.616C659.627 133.896 657.235 133.033 654.429 131.699C650.17 129.675 648.871 129.489 646.573 130.576C645.06 131.291 643.66 132.704 643.462 133.714C643.265 134.725 641.882 136.086 640.39 136.739L637.677 137.926L639.816 134.901C640.992 133.238 643.681 128.539 645.789 124.459C649.878 116.55 656.665 107.012 664.701 97.8808C667.718 94.4529 670.839 89.7165 672.72 85.7069L675.8 79.1441L671.205 79.9548C666.781 80.736 666.432 81.0352 661.864 87.9448C659.255 91.893 653.591 99.8752 649.277 105.683C644.964 111.49 636.715 122.97 630.946 131.192C622.618 143.061 619.865 146.371 617.585 147.25C616.006 147.86 614.675 148.999 614.627 149.783C614.571 150.717 615.088 150.612 616.132 149.476C618.207 147.221 619.783 147.979 617.924 150.339C617.14 151.335 610.87 160.621 603.992 170.975C595.638 183.55 590.4 190.61 588.217 192.238C586.419 193.578 581.85 195.381 578.063 196.243C571.606 197.715 570.541 198.271 569.658 200.634C569.465 201.151 565.487 206.087 560.819 211.601C552.382 221.568 552.324 221.614 551.03 219.306C549.857 217.215 549.604 217.101 548.487 218.155C547.724 218.874 546.725 218.832 545.892 218.048C545.146 217.345 541.205 216.171 537.133 215.437C529.304 214.027 527.231 214.035 530.038 215.464C531.352 216.132 530.414 216.705 525.977 217.945C522.804 218.832 519.771 219.349 519.237 219.093C517.802 218.407 512.447 220.695 511.66 222.331C511.285 223.109 509.814 224.616 508.39 225.68C506.967 226.743 505.264 228.727 504.604 230.089C503.945 231.451 503.057 232.396 502.63 232.191C501.755 231.77 499.279 237.589 499.489 239.576C499.564 240.288 500.389 241.675 501.323 242.659C502.68 244.09 502.692 245.083 501.384 247.616C499.467 251.326 499.935 253.366 503.047 254.864C504.584 255.603 504.956 256.265 504.224 256.956C503.634 257.511 503.601 258.182 504.15 258.446C504.698 258.71 504.659 259.94 504.063 261.179C502.849 263.703 503.06 263.963 506.21 263.827C507.868 263.757 508.752 264.321 509.739 266.08C511.613 269.421 512.964 269.79 517.502 268.201ZM515.288 263.767C518.24 260.241 522.861 259.015 521.348 262.159C520.653 263.603 513.866 267.561 512.89 267.091C512.739 267.019 513.818 265.523 515.288 263.767ZM501.793 258.977C501.534 257.937 500.714 256.793 499.97 256.435C498.871 255.906 498.707 256.138 499.09 257.676C499.35 258.717 500.17 259.86 500.913 260.218C502.013 260.747 502.176 260.515 501.793 258.977ZM547.197 248.365C547.84 247.606 547.684 248.405 546.849 250.14C546.015 251.875 545.487 252.495 545.679 251.519C545.869 250.542 546.552 249.123 547.197 248.365ZM577.54 259.36C578.542 258.011 580.183 255.804 581.185 254.455C582.714 252.4 582.721 251.865 581.231 251.148C578.891 250.022 577.501 251.469 576.419 256.16C575.792 258.879 575.121 260.051 574.126 260.168C573.16 260.283 573.19 260.567 574.218 261.074C575.175 261.544 576.376 260.925 577.54 259.36ZM556.072 242.371C556.809 241.505 557.77 240.968 558.208 241.179C559.149 241.632 559.044 241.935 557.408 243.477C555.618 245.164 554.492 244.232 556.072 242.371ZM558.563 226.334C558.928 225.574 558.695 224.389 558.045 223.699C557.083 222.679 557.372 221.669 559.593 218.282C563.025 213.048 570.086 206.216 571.908 206.365C572.749 206.435 573.959 205.013 575.007 202.723C576.506 199.446 577.315 198.829 581.338 197.894C586.401 196.718 591.962 198.438 590.813 200.826C590.408 201.667 589.312 201.768 587.91 201.094C585.34 199.857 585.361 199.837 585.041 203.586C584.86 205.711 577.825 227.673 576.214 231.144C576.063 231.469 573.572 231.208 570.676 230.565C567.782 229.922 564.64 229.444 563.697 229.502C560.824 229.682 557.839 227.838 558.563 226.334ZM580.803 204.332C580.735 203.689 580.501 203.077 580.282 202.972C580.063 202.866 579.689 203.186 579.451 203.682C579.212 204.177 579.447 204.79 579.972 205.042C580.496 205.294 580.87 204.975 580.803 204.332ZM622.511 182.232C623.056 181.884 623.096 181.403 622.6 181.165C622.105 180.926 621.253 181.016 620.709 181.364C620.164 181.713 620.124 182.193 620.619 182.431C621.115 182.67 621.966 182.58 622.511 182.232ZM685.416 174.889C685.629 174.447 685.313 173.565 684.714 172.929C684.064 172.239 684.139 171.221 684.902 170.404C686.106 169.114 686.074 169.101 684.352 170.164C683.345 170.785 682.465 171.984 682.395 172.83C682.259 174.491 684.78 176.21 685.416 174.889ZM688.255 163.838C690.681 157.246 689.135 153.251 683.025 150.325L678.791 148.299L681.516 152.437C683.015 154.712 683.96 157.16 683.615 157.876C683.271 158.591 683.351 159.35 683.793 159.563C684.235 159.775 684.365 161.072 684.083 162.445C683.802 163.818 684.211 165.816 684.993 166.887C686.377 168.782 686.466 168.699 688.255 163.838ZM645.214 132.537C646.256 131.555 646.67 131.632 647.112 132.893C647.554 134.156 647.304 134.546 645.968 134.688C643.79 134.917 643.517 134.137 645.214 132.537ZM666.075 103.107C666.836 102.442 667.404 101.028 667.338 99.9654C667.178 97.3656 665.701 98.5714 665.142 101.758C664.767 103.895 664.921 104.118 666.075 103.107ZM643.796 67.6264C644.265 66.6313 644.566 65.1119 644.465 64.2488C644.32 63.0045 644.005 62.9417 642.941 63.9436C641.682 65.131 641.539 65.058 640.594 62.7353C639.395 59.7926 640.055 57.9828 642.262 58.1636C644.04 58.3098 645.711 55.786 644.29 55.1022C643.795 54.8637 643.182 55.0984 642.93 55.6229C642.678 56.1473 642.167 56.1027 641.796 55.5224C641.35 54.8225 641.85 54.1709 643.282 53.5874C645.818 52.5547 646.67 51.3289 644.708 51.5357C643.825 51.6291 643.746 51.298 644.484 50.602C645.113 50.0102 647.601 47.2549 650.015 44.4811C655.148 38.5826 655.458 38.3753 655.722 40.66C655.89 42.1102 656.047 42.1359 656.696 40.8188C657.12 39.9554 656.86 38.9557 656.116 38.5979C655.348 38.2281 655.154 37.1383 655.668 36.0705C656.971 33.3627 658.469 35.312 658.567 39.8436C658.645 43.4268 658.73 43.5422 659.765 41.4633C660.827 39.3299 660.901 39.3346 661.348 41.5471C661.607 42.8237 662.491 44.747 663.313 45.8219C664.866 47.8499 664.24 57.2426 662.267 61.5331C660.835 64.6463 661.174 66.2487 663.712 68.3624C665.403 69.7699 666.185 69.8631 667.293 68.7859C668.073 68.028 670.233 66.704 672.094 65.8439C674.967 64.5172 675.7 63.6094 676.932 59.8484C677.996 56.5995 678.464 55.8991 678.684 57.226C678.905 58.5586 679.494 57.7102 680.919 54.008C681.984 51.243 682.779 48.8283 682.687 48.6418C682.595 48.4545 681.936 47.4402 681.221 46.3883C680.088 44.7175 680.232 44.7135 682.347 46.3543C684.065 47.6866 684.645 47.8241 684.338 46.826C684.099 46.0518 680.995 43.162 677.44 40.4048C673.884 37.6485 670.899 35.2508 670.805 35.0778C670.709 34.9053 673.549 32.409 677.115 29.5305C683.963 24.0024 693.739 20.0803 696.89 21.5966C698.518 22.3802 698.24 23.1863 691.885 36.0842C685.481 49.083 685.235 49.8015 686.794 50.951C687.695 51.6145 688.819 53.0784 689.29 54.2019C690.052 56.0166 690.295 56.0894 691.451 54.85C692.661 53.5524 714.109 13.6903 718.758 4.09847L720.83 -0.176101L716.88 -2.07664C712.34 -4.26164 711.446 -3.65279 707.632 4.22093C704.923 9.81209 701.894 12.907 700.015 12.0029C699.242 11.6308 698.262 12.1291 697.774 13.1438C697.214 14.3062 697.508 15.2352 698.6 15.7608C699.807 16.3418 697.346 17.6243 690.018 20.2319C683.233 22.6466 677.569 25.5206 673.34 28.694L666.938 33.5002L664.333 31.0645C661.971 28.8559 661.909 28.4767 663.666 27.0126C666.235 24.8711 665.457 23.0339 662.671 24.6661C660.716 25.8117 660.157 25.6694 657.428 23.3264C652.738 19.3018 647.538 18.94 638.82 22.0325C630.183 25.0965 628.21 27.3796 623.393 39.8924C621.092 45.8687 620.536 48.5965 621.11 51.1046C621.853 54.353 621.949 54.4249 625.854 54.6301C628.045 54.7458 630.262 54.5687 630.78 54.2375C631.827 53.5681 635.331 55.271 634.872 56.2253C634.712 56.5578 635.304 57.4442 636.188 58.1948C637.47 59.2846 637.451 59.9732 636.091 61.6071C634.787 63.1717 634.726 63.8171 635.836 64.3509C636.632 64.7342 637.139 65.3518 636.959 65.724C636.78 66.0961 638.053 67.0828 639.788 67.9175C642.345 69.1481 643.103 69.0932 643.796 67.6264ZM666.806 52.9605C668.392 52.4043 668.706 55.3099 667.211 56.719C665.867 57.9864 665.772 57.9153 665.837 55.6771C665.875 54.3558 666.311 53.134 666.806 52.9605ZM651.926 27.7034C652.165 27.2078 652.968 27.095 653.711 27.4527C654.455 27.8105 654.868 28.5087 654.629 29.0043C654.391 29.4999 653.587 29.6127 652.844 29.2549C652.101 28.8972 651.688 28.199 651.926 27.7034Z" fill="#B2BFAF"/>
</svg>
