<svg width="16" height="16" viewBox="0 0 16 16" fill="none" xmlns="http://www.w3.org/2000/svg">
<g id="Behance">
<g id="Vector">
<path fill-rule="evenodd" clip-rule="evenodd" d="M5.5085 3.99997C5.83601 3.99389 6.16306 4.02746 6.4825 4.09997C6.75146 4.15869 7.00682 4.26796 7.235 4.42197C7.44574 4.57511 7.61249 4.781 7.7185 5.01897C7.84034 5.31159 7.89911 5.6266 7.891 5.94347C7.90484 6.29139 7.81598 6.63569 7.6355 6.93347C7.44563 7.21471 7.18319 7.43931 6.876 7.58347C7.29287 7.69585 7.65597 7.95329 7.9 8.30947C8.13426 8.68687 8.25201 9.12498 8.2385 9.56897C8.24623 9.92296 8.17303 10.274 8.0245 10.5955C7.8872 10.8759 7.68617 11.1202 7.4375 11.309C7.18148 11.4957 6.89337 11.6338 6.5875 11.7165C6.2703 11.8042 5.94261 11.8483 5.6135 11.8475H2V3.99997H5.5085ZM5.3 7.17397C5.55733 7.18457 5.81064 7.10754 6.0185 6.95547C6.11805 6.86685 6.19548 6.75617 6.24462 6.63228C6.29376 6.50839 6.31324 6.37473 6.3015 6.24197C6.30816 6.08691 6.27729 5.93254 6.2115 5.79197C6.15569 5.68005 6.06892 5.58651 5.9615 5.52247C5.8527 5.45197 5.73046 5.40482 5.6025 5.38397C5.46367 5.35707 5.32239 5.34484 5.181 5.34747H3.637V7.18097H5.3V7.17397ZM5.39 10.515C5.54562 10.5171 5.70092 10.5003 5.8525 10.465C5.99102 10.4344 6.12239 10.3775 6.2395 10.2975C6.35423 10.2175 6.44692 10.1098 6.509 9.98447C6.58098 9.82465 6.61405 9.65004 6.6055 9.47497C6.62111 9.31543 6.59998 9.15443 6.54373 9.00432C6.48748 8.85421 6.39761 8.71897 6.281 8.60897C6.03385 8.42693 5.73097 8.33676 5.4245 8.35397H3.637V10.515H5.39Z" fill="#0C0C0C"/>
<path fill-rule="evenodd" clip-rule="evenodd" d="M10.57 10.486C10.6985 10.6051 10.8498 10.6968 11.0149 10.7556C11.1799 10.8144 11.3552 10.839 11.53 10.828C11.8072 10.835 12.079 10.7506 12.3035 10.588C12.4862 10.4692 12.6245 10.2934 12.697 10.088H14.0025C13.8634 10.6729 13.5237 11.1905 13.0425 11.551C12.5809 11.8574 12.0353 12.0126 11.4815 11.995C11.0862 12.0002 10.694 11.9258 10.328 11.7765C9.99694 11.6384 9.70003 11.4297 9.45801 11.165C9.21689 10.8876 9.03166 10.5662 8.9125 10.2185C8.77875 9.82982 8.71329 9.42095 8.719 9.00997C8.71657 8.60588 8.78424 8.20443 8.919 7.82347C9.10006 7.28752 9.44624 6.82271 9.90787 6.49574C10.3695 6.16876 10.9228 5.99643 11.4885 6.00347C11.9061 5.99474 12.3191 6.09247 12.6885 6.28747C13.0224 6.47057 13.3105 6.727 13.531 7.03747C13.7566 7.36324 13.9183 7.72888 14.0075 8.11497C14.1053 8.52955 14.1402 8.9565 14.111 9.38147H10.2225C10.191 9.78074 10.3156 10.1767 10.57 10.486ZM12.276 7.50147C12.1672 7.39263 12.0363 7.30837 11.8922 7.25438C11.7481 7.20039 11.594 7.17791 11.4405 7.18847C11.2368 7.1807 11.0346 7.22583 10.8535 7.31947C10.71 7.39849 10.5832 7.50482 10.4805 7.63247C10.3895 7.75215 10.3216 7.88782 10.2805 8.03247C10.2435 8.15311 10.2203 8.27758 10.2115 8.40347H12.62C12.599 8.07529 12.4795 7.76109 12.277 7.50197L12.276 7.50147Z" fill="#0C0C0C"/>
<path d="M9.901 4.52397H12.919V5.29547H9.901V4.52397Z" fill="#0C0C0C"/>
</g>
</g>
</svg>
