<svg width="12" height="12" viewBox="0 0 12 12" fill="none" xmlns="http://www.w3.org/2000/svg">
<g id="_Linkedin" clip-path="url(#clip0_3428_157)">
<path id="Vector" d="M0 1.60085C0 1.21474 0.135139 0.896204 0.405405 0.645247C0.675672 0.394278 1.02703 0.268799 1.45946 0.268799C1.88417 0.268799 2.2278 0.392343 2.49035 0.639455C2.76061 0.894281 2.89575 1.22632 2.89575 1.63559C2.89575 2.00625 2.76448 2.31512 2.50193 2.56223C2.23166 2.81706 1.87645 2.94447 1.43629 2.94447H1.42471C0.999996 2.94447 0.656375 2.81706 0.393822 2.56223C0.13127 2.30741 0 1.98694 0 1.60085ZM0.150579 11.736V3.99853H2.72201V11.736H0.150579ZM4.14672 11.736H6.71815V7.41552C6.71815 7.14524 6.74904 6.93674 6.81081 6.79003C6.91892 6.52748 7.08301 6.30547 7.30309 6.12401C7.52317 5.94254 7.79922 5.85181 8.13128 5.85181C8.99614 5.85181 9.42857 6.43482 9.42857 7.60084V11.736H12V7.29969C12 6.15683 11.7297 5.29003 11.1892 4.6993C10.6486 4.10857 9.93437 3.8132 9.04633 3.8132C8.05019 3.8132 7.27413 4.24177 6.71815 5.09891V5.12208H6.70656L6.71815 5.09891V3.99853H4.14672C4.16216 4.24563 4.16988 5.01396 4.16988 6.30355C4.16988 7.59312 4.16216 9.40393 4.14672 11.736Z" fill="#0C0C0C"/>
</g>
<defs>
<clipPath id="clip0_3428_157">
<rect width="12" height="12" fill="white"/>
</clipPath>
</defs>
</svg>
